<svg xmlns="http://www.w3.org/2000/svg" xmlns:xlink="http://www.w3.org/1999/xlink" viewBox="0 0 223.7 96.6"><defs><style>.cls-1{fill:none;}.cls-2{fill:#1e375a;}.cls-3{fill:#00abe1;}.cls-4{clip-path:url(#clip-path);}.cls-5{fill:#c2d2e7;}.cls-6{clip-path:url(#clip-path-2);}.cls-7{isolation:isolate;}</style><clipPath id="clip-path"><rect class="cls-1" x="88.96" y="9.64" width="59.5" height="56.4" transform="translate(-2.23 7.89) rotate(-3.77)"/></clipPath><clipPath id="clip-path-2"><rect class="cls-1" x="89.06" y="9.24" width="59.3" height="56.2" transform="translate(-2.2 7.88) rotate(-3.77)"/></clipPath></defs><g id="Layer_2" data-name="Layer 2"><g id="Layer_1-2" data-name="Layer 1"><path class="cls-2" d="M24.55,45a9.52,9.52,0,0,0,2.5-.3,5.08,5.08,0,0,0,1.8-.9,6.34,6.34,0,0,0,1.1-1.3,2.82,2.82,0,0,0,.4-1.5,5,5,0,0,0-.2-1.2,2.59,2.59,0,0,0-.7-1.1,3.6,3.6,0,0,0-1.2-.8,3.65,3.65,0,0,0-1.5-.3h-7.6V29h7.6a3.34,3.34,0,0,0,1.5-.3,2.55,2.55,0,0,0,1.2-.8,4.13,4.13,0,0,0,.7-1.1,2.54,2.54,0,0,0,.2-1.2,2.82,2.82,0,0,0-.4-1.5,2.76,2.76,0,0,0-1.1-1.3,7.68,7.68,0,0,0-1.8-1,9,9,0,0,0-2.5-.3,8.68,8.68,0,0,0-4.2,1,10.78,10.78,0,0,0-3.7,3.1H7.85V13.84c.8-.3,1.6-.7,2.5-1s1.8-.6,2.9-.9a62.69,62.69,0,0,1,6.3-1.3A51.69,51.69,0,0,1,28,10a28.38,28.38,0,0,1,9.2,1.3,22.54,22.54,0,0,1,6.6,3.2,12,12,0,0,1,3.9,4.6,11.22,11.22,0,0,1,1.3,5.3,9.69,9.69,0,0,1-.6,3.6,9.17,9.17,0,0,1-1.4,2.6,7.28,7.28,0,0,1-1.8,1.7,9.47,9.47,0,0,1-1.7.9,18,18,0,0,1,1.8,1,9.37,9.37,0,0,1,1.8,1.7,8.42,8.42,0,0,1,1.3,2.5,9.51,9.51,0,0,1,.6,3.5,11.22,11.22,0,0,1-1.3,5.3,14.11,14.11,0,0,1-3.9,4.6,22.58,22.58,0,0,1-6.6,3.3,31.59,31.59,0,0,1-9.2,1.2c-2.5,0-4.8-.1-6.8-.3s-3.8-.5-5.5-.8a32.51,32.51,0,0,1-4.3-1.2c-1.3-.4-2.4-.9-3.5-1.3V40.94h8.8a10.78,10.78,0,0,0,3.7,3.1A9.24,9.24,0,0,0,24.55,45Zm74.8-18.4v7.8a27.25,27.25,0,0,1-1.6,10,19.34,19.34,0,0,1-4.3,6.8,14.78,14.78,0,0,1-6.4,3.7,28.82,28.82,0,0,1-7.8,1.1,37,37,0,0,1-9-1.1,17.63,17.63,0,0,1-7.2-3.7,18.64,18.64,0,0,1-4.8-6.8,25.17,25.17,0,0,1-1.8-10v-7.8l-3.5-.7V14.54h22.8V26l-3.5.7v9.5a11,11,0,0,0,.2,1.8,8.24,8.24,0,0,0,.6,1.9,6.1,6.1,0,0,0,1.2,1.6,5.61,5.61,0,0,0,2,1.2,8.47,8.47,0,0,0,2.9.4,8.12,8.12,0,0,0,2.9-.4,5.61,5.61,0,0,0,2-1.2,6.57,6.57,0,0,0,1.2-1.7,6,6,0,0,0,.6-1.9,12.37,12.37,0,0,0,.2-1.8c0-.6.1-1.1.1-1.6v-7.9l-3.5-.7V14.54h20.2V26Z"/><path class="cls-3" d="M129.35,34.54a24.81,24.81,0,0,1,1.7-9.5,16.9,16.9,0,0,1,4.7-6.6,19.24,19.24,0,0,1,7.4-3.8,36.13,36.13,0,0,1,9.7-1.3,49.69,49.69,0,0,1,5.8.3,45.59,45.59,0,0,1,4.7.8,27.35,27.35,0,0,1,3.7,1.1c1.1.4,2,.8,2.8,1.1v12.7h-8.3c-.4-.6-.9-1.2-1.3-1.7a5.26,5.26,0,0,0-1.4-1.2,8.65,8.65,0,0,0-1.7-.7,7.5,7.5,0,0,0-2.2-.2,10.47,10.47,0,0,0-3,.5,6.81,6.81,0,0,0-2.6,1.5,9.09,9.09,0,0,0-1.8,2.7,12.07,12.07,0,0,0-.7,4.1,15.35,15.35,0,0,0,.6,4.7,7.32,7.32,0,0,0,1.6,2.9,6.14,6.14,0,0,0,2.6,1.5,12.48,12.48,0,0,0,3.5.4,17,17,0,0,0,2.2-.1,12.88,12.88,0,0,0,2.5-.6v-3.3H154v-7.1h17.1v19.4c-1.4.6-3,1.2-4.6,1.7s-3.2,1-4.9,1.4a40,40,0,0,1-4.8.8c-1.6.1-3,.2-4.3.2a33.36,33.36,0,0,1-9.1-1.2,19.48,19.48,0,0,1-7.4-3.9,18.87,18.87,0,0,1-4.9-6.8A27.19,27.19,0,0,1,129.35,34.54Zm44.9,0A24.81,24.81,0,0,1,176,25a16.9,16.9,0,0,1,4.7-6.6,19.24,19.24,0,0,1,7.4-3.8,36.13,36.13,0,0,1,9.7-1.3,49.69,49.69,0,0,1,5.8.3c1.7.2,3.3.5,4.7.8a27.35,27.35,0,0,1,3.7,1.1c1.1.4,2,.8,2.8,1.1v12.7h-8.3c-.4-.6-.9-1.2-1.3-1.7a5.26,5.26,0,0,0-1.4-1.2,8.65,8.65,0,0,0-1.7-.7,7.5,7.5,0,0,0-2.2-.2,10.47,10.47,0,0,0-3,.5,6.81,6.81,0,0,0-2.6,1.5,9.09,9.09,0,0,0-1.8,2.7,12.07,12.07,0,0,0-.7,4.1,15.35,15.35,0,0,0,.6,4.7,7.32,7.32,0,0,0,1.6,2.9,6.14,6.14,0,0,0,2.6,1.5,12.48,12.48,0,0,0,3.5.4,17,17,0,0,0,2.2-.1,10.55,10.55,0,0,0,2.4-.6v-3.3h-5.9v-7.1h17.1v19.4c-1.4.6-3,1.2-4.6,1.7s-3.2,1-4.9,1.4a40,40,0,0,1-4.8.8c-1.6.1-3,.2-4.3.2a33.36,33.36,0,0,1-9.1-1.2,19.48,19.48,0,0,1-7.4-3.9,18.87,18.87,0,0,1-4.9-6.8A29.6,29.6,0,0,1,174.25,34.54Z"/><g class="cls-4"><path class="cls-5" d="M129.85,9.34l2.4-.2,1.5.1,1.1.1.8.2.9.2,1,.3.7.3.9.4.8.4.7.4.7.4.5.4.3.2.6.5.3.3.5.5.6.7.6.7.5.6.5.8.4.7.5,1,.3.8.3,1.1.3,1.2.1.3.1,2-.1,1.3-.2,1.1-.2,1-.3.9-.3.8-.3.7-.4.8-.4.7-.3.5-.4.5-.4.5-.5.6-8.7,9.4-.3.3-.5.4-.7.6-.5.4-.7.5-.9.5-.9.4-1,.4-.8.3h-.4l-2,.1.5,1.4-.7-.3.2,1.5-1,2.2.5-3-.5,2.5-.7.5-9.3,9.2-.6.5-.5.6h-1.1l.4.7-.9.8-.8-.5-.6,1.1-.6-.5-.8-.4-2,.4-2.7,2.6-1.2-.4-.7.4-.5.1-.7-1.5h-1.8l-.5.3-.8-.4H99l-.9-.4.4-.4-1-.2-1.2-.7-.2-.4h-.5l3-.9-.1-.7-.7-.3-1-.7-.5-.7-.7-.8-1.5-.9-.9-1.1-.8-1.7-2.1-2.2.2-1.6.2-1.1.3-1.2.3-.9.4-.9.4-.7.5-.8.4-.6.4-.5.4-.5.3-.3.2-.3,8.4-9,.3-.3.4-.4.5-.4.7-.5.8-.5.6-.4.8-.4.9-.4.8-.3.6-.2h.2l.1-.4.3-1.1.3-.9.3-.7.4-.8.5-.9.5-.7.4-.5.3-.4.2-.3h.1l.1-.1,8.5-9.1.3-.3.4-.4.5-.4.5-.4.6-.5.5-.4.6-.4.9-.5.9-.4.9-.3,1.2-.4,1.1-.3Zm1,7.1-.9.2-.8.3-.7.3-.6.3-.6.4-.4.3-.5.5-8.6,9.3-.3.4-.4.6-.1.3.3.1.9.2.9.3,1,.4.8.4.5.3.5.3.5.3.7.4.5.4.9.7.4.4.4.4.5.6.4.5.4.5.5.7.5.9.5,1,.2.5h.1l.4-.2.6-.5.4-.4.3-.3,8.2-8.8.2-.3.3-.4.4-.7.3-.5.3-.9.2-.7.1-.5.1-.8-.1-.9-.2-1-.3-.8-.4-.8-.4-.6-.4-.5-.3-.3-.4-.3-.6-.5-.7-.4-.6-.3-.8-.3-.8-.2-.6-.1-.6-.1h-.6Zm-21.8,20.7-1.3-.7-.7.7-.5.4h.2l-8,9.3-2.3.7v1.7l-.5.7,1.5.8-.1.6-.1.8.1,1.1.2,1,.3.8.3.7.5.8.3.4.4.5.5.4.4.3.5.4.5.3.8.4.8.2.6.1.7.1h.9l.9-.1,1.1-.2.8-.3.8-.3.8-.5.4-.3.4-.3.4-.3h.1v-.1l.1-.1,8.3-8.9.2-.3.4-.5.4-.7v-.1l-1.4-.4-1.1-.4-.8-.3-.8-.4-.6-.3-.5-.3-.6-.4-.5-.4-.3-.3-.3-.2-.4-.4-.5-.4-.3-.3-.5-.5-.6-.7-.6-.8-.5-.7-.4-.8-.5-1.2Zm9.2.6.1.2.6.5h.1l-.1-.1-.7-.6Z"/><path class="cls-5" d="M108.65,29.44h0v.4l-.2,1.1-.1.7v1.5l-.1.1v.6l-.1.4v.4l-.1,1.3v1.2l-.1.6v.2l.2.1.2-.1-.5.5-.3.3-8.3,8.9L99,48l-.4.6-.4.7-.3.7-.2.8-.1.6-.1.8.1,1.1.2,1,.3.8.3.7.5.8.3.4.4.5.5.4.3.3.5.4.5.3.8.4.8.2.6.1.7.1h.9l.9-.1,1.1-.2.8-.3.8-.3.8-.5.4-.3.4-.3.4-.3h.1v-.1l.3-.3,8.1-8.8.2-.3.4-.5.4-.7.4-.9.2-.4.1-.5.2-1v-.8l-.1-.9-.2-1-.1-.3-.1-.3-.2-.4-.2-.4-.4-.6-.4-.5-.4-.5-.4-.4-.6-.5-.4-.2-.3-.3v-.1h-.1v-.1h-.1v-.1h-.1v-.2H117v-.2h-.1l-.5-.8-.4-.8-.2-.8-.1-.2v-2l.2-1,.2-.8.3-.6.5-.2-.1.6-.4.5-.3.3.7-1.3h.4l-.2-.1h.3l1,.3,1,.4.8.3.9.5.5.3.5.3.7.5.5.4.9.8.4.4.4.4.5.6.4.5.4.5.5.7.5.9.5,1,.2.5.1.2.3.9.3,1,.2,1.2.1.9v1.1l-.1,1.1-.2,1.4h-.1l-.1.4-.4,1.3-.4,1.1-.4.8-.5,1-.4.7-.3.4-.3.4-.3.4-.2.3-8.8,9.5-.3.3-.5.4-.7.6-.7.5-.6.4-.8.5-1,.5-1,.4-.9.3-1,.3-1.4.3L105,67l-1.7-.1-1-.1-1.2-.3-1.1-.3-1.2-.5-.7-.3-.7-.3-.5-.3-.5-.4-.5-.4-.5-.4-.9-.7-.4-.4-.3-.3-.6-.7-.5-.6-.4-.5-.4-.6-.5-.9L91,58l-.4-1-.3-1.1-.3-1.4-.2-2.5.2-1.6.2-1.1.3-1.3.3-.9.4-.9.4-.7.5-.8.4-.6.4-.5.4-.5.3-.3.2-.3,8.4-9.1.3-.3.4-.4.5-.4.7-.5.8-.5.6-.4.8-.4.9-.5.8-.3.6-.2.1-.1Z"/><path class="cls-5" d="M94,31.14h.5l1.1.2.7.2.3.2.2.3v.2l-.2.4-.3.3L96,33h-.5l-.7-.2-.9-.3-.4-.2-.2-.3v-.3l.2-.3.2-.2Z"/><path class="cls-5" d="M108.85,14.64h.4l.4.1.3.3.3.6.4.8.1.4-.1.3-.2.4-.3.2h-.5l-.3-.2-.3-.3-.6-1.2-.1-.2v-.5l.2-.4.3-.3Z"/><path class="cls-5" d="M99.75,21.14h.5l.3.1,1.2,1.1.2.3.1.4-.1.4-.3.4-.2.1-.2.1H101l-.3-.1-.4-.4-.9-.8-.2-.3V22l.1-.4.2-.3Z"/><path class="cls-5" d="M109.05,37.14l-2,2-1.7-6.5,3.2-3.2A22.88,22.88,0,0,0,109.05,37.14Z"/></g><g class="cls-6"><path class="cls-2" d="M129.85,8.94l2.4-.2,1.5.1,1,.1.8.2.9.2,1,.3.7.3.9.4.8.4.7.4.7.4.5.4.3.2.6.5.3.3.5.5.6.7.6.7.5.6.5.8.4.7.5,1,.3.8.3,1.1.3,1.2.1.3.1,2-.1,1.3-.2,1.1-.2,1-.3.9-.3.8-.3.7-.4.8-.4.7-.3.5-.4.5-.4.5-.5.6-8.7,9.4-.3.3-.5.4-.7.6-.5.4-.7.5-.9.5-.9.4-1,.4-.8.3h-.4l-2,.1.5,1.4-.7-.3.2,1.5-1,2.2.5-3-.5,2.5-.7.5-9.3,9.1-.6.5-.5.6h-1.1l.4.7-.9.8L112,62l-.6,1.1-.6-.5-.8-.4-1.9.4-2.7,2.6-1.2-.4-.7.4-.5.1-.7-1.5h-1.8l-.5.3-.8-.4H99l-.9-.4.4-.4-1-.2-1.2-.7-.2-.4h-.5l3-.9-.1-.7-.7-.3-1-.7-.5-.7-.7-.8-1.5-.9-.9-1.1-.8-1.7-2.1-2.2.2-1.5.2-1.1.3-1.2.3-.9.4-.9.4-.7.5-.8.4-.6.4-.5.4-.5.3-.3.2-.3,8.4-9,.3-.3.4-.4.5-.4.7-.5.8-.5.6-.4.8-.4.9-.4.8-.3.6-.2h.2l.1-.4.3-1.1.3-.9.3-.7.4-.8.5-.9.5-.7.4-.5.3-.4.2-.3h.1l.1-.1,8.4-9.1.3-.3.4-.4.5-.4.5-.4.6-.5.5-.3.6-.4.9-.5.9-.4.9-.3,1.2-.4,1.1-.2Zm1,7.1-.9.2-.8.3-.7.3-.6.3-.6.4-.4.3-.5.5-8.6,9.2-.3.4-.4.6-.1.3.3.1.9.2.9.3,1,.4.8.4.5.3.5.3.5.3.7.4.5.4.9.7.4.4.4.4.5.6.4.5.4.5.5.7.5.9.5,1,.2.5h.1l.4-.2.6-.5.4-.4.3-.3,8.2-8.8.2-.3.3-.4.4-.7.3-.5.3-.9.2-.7.1-.5.1-.8-.1-.9-.2-1-.3-.8-.7-.7-.4-.6-.4-.5-.3-.3-.4-.3-.6-.5-.7-.4-.6-.3-.8-.3-.8-.2-.6-.1-.6-.1h-.6Zm-21.7,20.6-1.3-.7-.7.7-.5.4h.2l-8,9.3-2.2.7v1.7l-.5.7,1.5.8-.1.6-.1.8.1,1.1.2,1,.3.8.3.7.5.8.3.4.4.5.5.4.4.3.5.3.5.3.8.4.8.2.6.1.7.1h.9l.9-.1,1.1-.2.8-.3.8-.3.8-.5.4-.3.4-.3.3-.3h.1v-.1l.1-.1,8.3-8.9.2-.3.4-.5.4-.7V46l-1.4-.4-1.1-.3L117,45l-.8-.4-.6-.3-.5-.3-.6-.4-.5-.4-.3-.3-.3-.2-.4-.4-.5-.4-.3-.3-.5-.5-.6-.7-.6-.8-.5-.7-.4-.8-.5-1.2Zm9.1.6.1.2.6.5h.1l-.1-.1-.7-.6Z"/><path class="cls-3" d="M108.75,28.94h0v.3l-.2,1.1-.1.7v1.5l-.1.1v.6l-.1.4V34l-.1,1.3v1.2l-.1.6v.2l.2.1.2-.1-.5.5-.3.3L99.45,47l-.3.4-.4.6-.4.7-.3.7-.2.8-.1.6-.1.8.1,1.1.2,1,.3.8.3.7.5.8.3.4.4.5.5.4.3.3.5.4.5.3.8.4.8.2.6.1.7.1h.9l.9-.1,1.1-.2.8-.3.8-.3.8-.5.4-.3.4-.3.3-.3h.1v-.1l.3-.3,8.1-8.7.2-.3.4-.5.4-.7.4-.9.2-.4.1-.5.2-1v-.8l-.1-.9-.2-1-.1-.3-.1-.3-.2-.4-.2-.4-.4-.6-.4-.5-.4-.5-.4-.4-.6-.5-.3-.2-.3-.3v-.1h-.1v-.1h-.1V36h-.1v-.2h-.1v-.2h-.1l-.5-.8-.3-.8-.2-.8L116,33V31l.2-1,.2-.8.3-.6.5-.2-.1.6-.4.5-.3.3.7-1.3h.4l-.2-.1h.3l1,.3,1,.4.8.3.9.5.5.3.5.3.7.4.5.4.9.7.4.4.4.4.5.6.4.5.4.5.5.7.5.9.5,1,.2.5.1.2.3.9.3,1,.2,1.2.1.9v1.1l-.1,1.1-.2,1.4h-.1l-.1.4-.4,1.3-.4,1.1-.4.8-.5.9-.4.7-.3.4-.3.4-.3.4-.2.3-8.8,9.5-.3.3-.5.4-.7.6-.7.5-.6.4-.8.5-1,.5-1,.4-.9.3-1,.3-1.4.3-2.5.2-1.7-.1-1-.1-1.2-.3-1.1-.3-1.2-.5-.7-.3-.7-.3-.5-.3-.5-.4-.5-.4-.5-.4-.9-.7-.4-.4-.3-.3-.6-.7-.5-.6-.4-.5-.4-.6-.5-.9-.4-.9-.4-1-.3-1.1-.3-1.4-.2-2.5.2-1.6.2-1.1.3-1.3.3-.9.4-.9.4-.7.5-.8.4-.6.4-.5.4-.5.3-.3.2-.3,8.4-9.1.3-.3.4-.4.5-.4.7-.5.8-.5.6-.4.8-.4.9-.4.8-.3.6-.2-.1.1Z"/><path class="cls-3" d="M94.05,30.64h.5l1.1.2.7.2.3.2.2.3v.2l-.2.4-.3.3-.3.1h-.5l-.7-.2L94,32l-.4-.2-.2-.3v-.3l.2-.3.2-.2Z"/><path class="cls-3" d="M109,14.24h.4l.4.1.3.3.3.6.4.8.1.4-.1.3-.2.4-.3.2h-.5l-.3-.2-.3-.3-.6-1.2-.1-.2v-.5l.2-.4.3-.3Z"/><path class="cls-3" d="M99.85,20.74h.5l.3.1,1.2,1.1.2.3.1.4-.1.4-.3.4-.2.1-.2.1h-.3l-.3-.1-.4-.4-.9-.8-.2-.3v-.4l.1-.4.2-.3Z"/><path class="cls-3" d="M109.15,36.64l-2,2-1.7-6.5,3.2-3.2A22.88,22.88,0,0,0,109.15,36.64Z"/></g><g class="cls-7"><path class="cls-2" d="M12.92,87.88,9.39,76.6H9.32c.1,1.68.14,3.25.14,4.71v6.57H7.66V74.38h2.8l3.38,10.74h.05l3.48-10.74h2.81v13.5H18.27V81.2c0-.67,0-1.54,0-2.62s.06-1.73.08-2h-.06L14.67,87.88Z"/><path class="cls-2" d="M31.28,87.88h-2V81.6a3,3,0,0,0-.43-1.77,1.59,1.59,0,0,0-1.36-.58,2.07,2.07,0,0,0-1.81.81,4.83,4.83,0,0,0-.58,2.73v5.09H23.18V77.66h1.53L25,79h.1a2.8,2.8,0,0,1,1.19-1.12,3.54,3.54,0,0,1,1.69-.4q3.32,0,3.32,3.74Z"/><path class="cls-2" d="M38,88.06a4.18,4.18,0,0,1-3.35-1.39,5.6,5.6,0,0,1-1.21-3.83,6.21,6.21,0,0,1,1.12-3.93,3.73,3.73,0,0,1,3.09-1.43,3.61,3.61,0,0,1,2.88,1.23,5,5,0,0,1,1.05,3.38v1.17H35.46a3.66,3.66,0,0,0,.72,2.29,2.42,2.42,0,0,0,1.93.8,6,6,0,0,0,1.51-.18,7.5,7.5,0,0,0,1.52-.56v1.76a6,6,0,0,1-1.45.54A8.46,8.46,0,0,1,38,88.06Zm-.35-8.94a1.89,1.89,0,0,0-1.5.66,3.4,3.4,0,0,0-.67,1.91h4.18a3,3,0,0,0-.55-1.92A1.79,1.79,0,0,0,37.66,79.12Z"/><path class="cls-2" d="M51.57,87.88h-2v-6.3a3.14,3.14,0,0,0-.4-1.75A1.42,1.42,0,0,0,48,79.25a1.82,1.82,0,0,0-1.66.82,5.23,5.23,0,0,0-.53,2.72v5.09h-2V77.66h1.53L45.62,79h.1a2.72,2.72,0,0,1,1.11-1.12,3.25,3.25,0,0,1,1.6-.4,2.75,2.75,0,0,1,2.82,1.61h.13a2.93,2.93,0,0,1,1.15-1.19,3.36,3.36,0,0,1,1.69-.42,3,3,0,0,1,2.41.92,4.44,4.44,0,0,1,.75,2.82v6.66h-2v-6.3a3.06,3.06,0,0,0-.4-1.75,1.42,1.42,0,0,0-1.25-.58A1.86,1.86,0,0,0,52.1,80a4.47,4.47,0,0,0-.53,2.43Z"/><path class="cls-2" d="M68.27,82.75a5.94,5.94,0,0,1-1.16,3.91,3.92,3.92,0,0,1-3.22,1.4,4.08,4.08,0,0,1-2.28-.64,4.15,4.15,0,0,1-1.52-1.86,7,7,0,0,1-.53-2.81,5.93,5.93,0,0,1,1.15-3.88,3.94,3.94,0,0,1,3.23-1.39,3.85,3.85,0,0,1,3.17,1.43A5.92,5.92,0,0,1,68.27,82.75Zm-6.7,0c0,2.36.79,3.54,2.36,3.54s2.33-1.18,2.33-3.54-.78-3.5-2.35-3.5a1.91,1.91,0,0,0-1.78.91A5,5,0,0,0,61.57,82.75Z"/><path class="cls-2" d="M78.61,87.88h-2V81.6a3,3,0,0,0-.43-1.77,1.59,1.59,0,0,0-1.36-.58,2.06,2.06,0,0,0-1.81.81,4.83,4.83,0,0,0-.58,2.73v5.09h-2V77.66h1.53L72.32,79h.1a2.8,2.8,0,0,1,1.19-1.12,3.51,3.51,0,0,1,1.69-.4q3.32,0,3.31,3.74Z"/><path class="cls-2" d="M81.22,75a1.25,1.25,0,0,1,.29-.9,1,1,0,0,1,.82-.31,1,1,0,0,1,.8.31,1.3,1.3,0,0,1,.29.9,1.25,1.25,0,0,1-.29.87,1,1,0,0,1-.8.32,1,1,0,0,1-.82-.32A1.21,1.21,0,0,1,81.22,75Zm2.07,12.92h-2V77.66h2Z"/><path class="cls-2" d="M89.8,88.06a3.86,3.86,0,0,1-3.18-1.35,6.1,6.1,0,0,1-1.08-3.88,6.17,6.17,0,0,1,1.13-4A4,4,0,0,1,90,77.48a5.65,5.65,0,0,1,2.62.6L92,79.82a5.57,5.57,0,0,0-2-.53c-1.59,0-2.39,1.17-2.39,3.52a4.55,4.55,0,0,0,.6,2.58,2,2,0,0,0,1.74.86,4.63,4.63,0,0,0,2.47-.72v1.9a3.86,3.86,0,0,1-1.12.49A6.56,6.56,0,0,1,89.8,88.06Z"/><path class="cls-2" d="M108.7,74.38v8.73a5.72,5.72,0,0,1-.58,2.62,4,4,0,0,1-1.67,1.73,5.39,5.39,0,0,1-2.62.6,4.6,4.6,0,0,1-3.52-1.33,5.08,5.08,0,0,1-1.26-3.65v-8.7h2v8.54a3.61,3.61,0,0,0,.7,2.46,2.67,2.67,0,0,0,2.15.8q2.8,0,2.81-3.28V74.38Z"/><path class="cls-2" d="M113.8,82.48v5.4h-2V74.38h3.44a5.22,5.22,0,0,1,3.48,1,4.11,4.11,0,0,1-1.23,6.55l3.44,6h-2.27l-2.91-5.4Zm0-1.82h1.38a2.91,2.91,0,0,0,2-.58,2.18,2.18,0,0,0,.63-1.7,1.9,1.9,0,0,0-.68-1.64,3.41,3.41,0,0,0-2-.5H113.8Z"/><path class="cls-2" d="M122.7,87.88V74.38h2V86h5.15v1.89Z"/><path class="cls-2" d="M143.38,84.21A3.58,3.58,0,0,1,142.21,87a4.8,4.8,0,0,1-3.24,1,7,7,0,0,1-3.38-.71V85.26a9,9,0,0,0,1.77.69,7,7,0,0,0,1.74.25,2.61,2.61,0,0,0,1.75-.5,1.86,1.86,0,0,0,0-2.62,7.22,7.22,0,0,0-2.13-1.25,5.7,5.7,0,0,1-2.35-1.71,3.92,3.92,0,0,1-.68-2.31,3.39,3.39,0,0,1,1.08-2.66,4.18,4.18,0,0,1,2.91-1,7.82,7.82,0,0,1,3.48.85l-.64,1.8a7,7,0,0,0-2.89-.76,2.09,2.09,0,0,0-1.47.47,1.61,1.61,0,0,0-.5,1.23,1.93,1.93,0,0,0,.2.9,2.29,2.29,0,0,0,.66.71,11,11,0,0,0,1.65.88,8.85,8.85,0,0,1,2,1.15,3.39,3.39,0,0,1,.92,1.21A4.07,4.07,0,0,1,143.38,84.21Z"/><path class="cls-2" d="M153.62,87.88h-2V81.6a3,3,0,0,0-.43-1.77,1.59,1.59,0,0,0-1.36-.58,2.06,2.06,0,0,0-1.81.82,4.85,4.85,0,0,0-.58,2.74v5.07h-1.95V73.51h1.95v3.65a17.8,17.8,0,0,1-.1,1.87h.13a2.86,2.86,0,0,1,1.11-1.15,3.29,3.29,0,0,1,1.66-.4q3.34,0,3.34,3.74Z"/><path class="cls-2" d="M164.51,82.75a6,6,0,0,1-1.16,3.91,3.92,3.92,0,0,1-3.22,1.4,4,4,0,0,1-3.8-2.5,6.84,6.84,0,0,1-.54-2.81,6,6,0,0,1,1.15-3.88,4,4,0,0,1,3.24-1.39,3.83,3.83,0,0,1,3.16,1.43A5.87,5.87,0,0,1,164.51,82.75Zm-6.7,0c0,2.36.78,3.54,2.35,3.54s2.33-1.18,2.33-3.54-.78-3.5-2.34-3.5a1.93,1.93,0,0,0-1.79.91A5,5,0,0,0,157.81,82.75Z"/><path class="cls-2" d="M171.42,77.48a4.42,4.42,0,0,1,1,.09l-.2,2a3.43,3.43,0,0,0-.86-.11,2.4,2.4,0,0,0-1.9.85,3.26,3.26,0,0,0-.73,2.21v5.34h-2V77.66h1.53l.26,1.8h.1a4,4,0,0,1,1.2-1.45A2.68,2.68,0,0,1,171.42,77.48Z"/><path class="cls-2" d="M177.53,86.31a4.23,4.23,0,0,0,1.43-.25v1.63a3.32,3.32,0,0,1-.84.27,5.22,5.22,0,0,1-1.06.1q-2.77,0-2.78-3.25v-5.5H173v-1l1.35-.8.66-2.16h1.21v2.27h2.62v1.65h-2.62v5.47a1.63,1.63,0,0,0,.35,1.15A1.24,1.24,0,0,0,177.53,86.31Z"/><path class="cls-2" d="M184.82,88.06a4.22,4.22,0,0,1-3.36-1.39,5.6,5.6,0,0,1-1.21-3.83,6.27,6.27,0,0,1,1.12-3.93,3.73,3.73,0,0,1,3.09-1.43,3.59,3.59,0,0,1,2.88,1.23,5,5,0,0,1,1.06,3.38v1.17h-6.13a3.54,3.54,0,0,0,.72,2.29,2.38,2.38,0,0,0,1.92.8,6.09,6.09,0,0,0,1.52-.18,7.43,7.43,0,0,0,1.51-.56v1.76a6,6,0,0,1-1.45.54A8.35,8.35,0,0,1,184.82,88.06Zm-.36-8.94a1.85,1.85,0,0,0-1.49.66,3.26,3.26,0,0,0-.67,1.91h4.18a3.16,3.16,0,0,0-.55-1.92A1.82,1.82,0,0,0,184.46,79.12Z"/><path class="cls-2" d="M198.72,87.88h-2V81.6a3,3,0,0,0-.43-1.77,1.58,1.58,0,0,0-1.36-.58,2.07,2.07,0,0,0-1.81.81,4.93,4.93,0,0,0-.57,2.73v5.09h-2V77.66h1.53l.28,1.34h.1a2.78,2.78,0,0,1,1.18-1.12,3.54,3.54,0,0,1,1.69-.4q3.32,0,3.32,3.74Z"/><path class="cls-2" d="M205.46,88.06a4.22,4.22,0,0,1-3.36-1.39,5.6,5.6,0,0,1-1.21-3.83A6.21,6.21,0,0,1,202,78.91a3.73,3.73,0,0,1,3.09-1.43A3.61,3.61,0,0,1,208,78.71,5,5,0,0,1,209,82.09v1.17H202.9a3.6,3.6,0,0,0,.73,2.29,2.38,2.38,0,0,0,1.92.8,6.15,6.15,0,0,0,1.52-.18,7.43,7.43,0,0,0,1.51-.56v1.76a6,6,0,0,1-1.45.54A8.42,8.42,0,0,1,205.46,88.06Zm-.36-8.94a1.85,1.85,0,0,0-1.49.66,3.26,3.26,0,0,0-.67,1.91h4.17a3,3,0,0,0-.55-1.92A1.79,1.79,0,0,0,205.1,79.12Z"/><path class="cls-2" d="M215.93,77.48a4.38,4.38,0,0,1,1,.09l-.19,2a3.58,3.58,0,0,0-.87-.11,2.41,2.41,0,0,0-1.9.85,3.26,3.26,0,0,0-.73,2.21v5.34h-2V77.66h1.53l.26,1.8h.1A3.89,3.89,0,0,1,214.34,78,2.69,2.69,0,0,1,215.93,77.48Z"/></g><rect class="cls-1" width="223.7" height="96.6"/></g></g></svg>